<svg width="960" height="720" viewBox="0 0 960 720" fill="none" xmlns="http://www.w3.org/2000/svg">
  <defs>
    <pattern id="stars" x="0" y="0" width="18" height="18" patternUnits="userSpaceOnUse">
      <rect width="18" height="18" fill="#122026"/>
      <rect x="4" y="4" width="2" height="2" fill="#D7C19A" opacity="0.35"/>
      <rect x="12" y="8" width="2" height="2" fill="#86A691" opacity="0.35"/>
      <rect x="8" y="14" width="2" height="2" fill="#C66F4A" opacity="0.25"/>
    </pattern>
    <linearGradient id="lineage-sky" x1="480" y1="40" x2="480" y2="680" gradientUnits="userSpaceOnUse">
      <stop stop-color="#1D3138"/>
      <stop offset="1" stop-color="#10181D"/>
    </linearGradient>
  </defs>

  <rect width="960" height="720" fill="url(#lineage-sky)"/>
  <rect width="960" height="720" fill="url(#stars)" opacity="0.6"/>
  <path d="M184 644C244 566 280 476 340 400C412 308 472 278 520 220C572 158 600 102 650 76" stroke="#86A691" stroke-width="18" stroke-linecap="round" opacity="0.4"/>
  <path d="M300 644C360 572 390 512 446 444C500 380 566 340 612 282C662 220 684 176 742 134" stroke="#D7C19A" stroke-width="12" stroke-linecap="round" opacity="0.42"/>
  <path d="M520 660C546 606 564 552 602 508C652 450 702 422 736 378C776 326 790 280 820 234" stroke="#C66F4A" stroke-width="10" stroke-linecap="round" opacity="0.38"/>

  <circle cx="650" cy="76" r="26" fill="#D7C19A"/>
  <circle cx="742" cy="134" r="22" fill="#83A89B"/>
  <circle cx="820" cy="234" r="18" fill="#C66F4A"/>
  <circle cx="612" cy="282" r="18" fill="#D7C19A"/>
  <circle cx="446" cy="444" r="20" fill="#83A89B"/>
  <circle cx="340" cy="400" r="20" fill="#D7C19A"/>
  <circle cx="184" cy="644" r="18" fill="#83A89B"/>
  <circle cx="300" cy="644" r="20" fill="#C66F4A"/>
  <circle cx="520" cy="660" r="22" fill="#D7C19A"/>

  <rect x="88" y="86" width="232" height="92" rx="18" fill="#18252B" stroke="#D7C19A" stroke-opacity="0.14" stroke-width="4"/>
  <rect x="118" y="118" width="132" height="12" rx="6" fill="#D7C19A"/>
  <rect x="118" y="146" width="92" height="10" rx="5" fill="#83A89B"/>

  <rect x="660" y="546" width="206" height="88" rx="18" fill="#18252B" stroke="#D7C19A" stroke-opacity="0.14" stroke-width="4"/>
  <rect x="690" y="578" width="110" height="12" rx="6" fill="#D7C19A"/>
  <rect x="690" y="604" width="78" height="10" rx="5" fill="#83A89B"/>
</svg>
