<svg width="960" height="720" viewBox="0 0 960 720" fill="none" xmlns="http://www.w3.org/2000/svg">
  <defs>
    <pattern id="voice-noise" x="0" y="0" width="12" height="12" patternUnits="userSpaceOnUse">
      <rect width="12" height="12" fill="#141D22"/>
      <rect width="6" height="6" fill="#22343E"/>
      <rect x="6" y="6" width="6" height="6" fill="#22343E"/>
      <rect x="2" y="2" width="2" height="2" fill="#D8B071" opacity="0.25"/>
      <rect x="8" y="3" width="2" height="2" fill="#87A89A" opacity="0.25"/>
    </pattern>
  </defs>

  <rect width="960" height="720" fill="#10181C"/>
  <rect width="960" height="720" fill="url(#voice-noise)" opacity="0.5"/>
  <rect x="74" y="62" width="812" height="596" rx="34" fill="#18242A" stroke="#D7C19A" stroke-opacity="0.16" stroke-width="4"/>

  <rect x="130" y="108" width="700" height="280" rx="26" fill="#29424A"/>
  <circle cx="234" cy="202" r="54" fill="#D6B27B"/>
  <rect x="184" y="254" width="110" height="92" rx="34" fill="#8E543F"/>
  <circle cx="410" cy="216" r="64" fill="#D6B27B"/>
  <rect x="344" y="286" width="144" height="114" rx="42" fill="#C56D52"/>
  <rect x="468" y="246" width="182" height="24" rx="12" fill="#D6B27B"/>
  <rect x="636" y="210" width="72" height="138" rx="18" fill="#20323A"/>
  <rect x="662" y="148" width="22" height="92" rx="11" fill="#D6B27B"/>
  <rect x="668" y="132" width="10" height="34" rx="5" fill="#83A89B"/>
  <circle cx="702" cy="166" r="88" fill="#D6B27B" fill-opacity="0.08"/>

  <rect x="124" y="442" width="712" height="154" rx="22" fill="#152127" stroke="#D7C19A" stroke-opacity="0.1" stroke-width="4"/>
  <g fill="#83A89B">
    <rect x="164" y="520" width="16" height="28" rx="8"/>
    <rect x="194" y="492" width="16" height="56" rx="8"/>
    <rect x="224" y="468" width="16" height="80" rx="8"/>
    <rect x="254" y="502" width="16" height="46" rx="8"/>
    <rect x="284" y="482" width="16" height="66" rx="8"/>
    <rect x="314" y="458" width="16" height="90" rx="8"/>
    <rect x="344" y="488" width="16" height="60" rx="8"/>
    <rect x="374" y="470" width="16" height="78" rx="8"/>
    <rect x="404" y="452" width="16" height="96" rx="8"/>
    <rect x="434" y="492" width="16" height="56" rx="8"/>
    <rect x="464" y="476" width="16" height="72" rx="8"/>
    <rect x="494" y="448" width="16" height="100" rx="8"/>
    <rect x="524" y="488" width="16" height="60" rx="8"/>
    <rect x="554" y="462" width="16" height="86" rx="8"/>
    <rect x="584" y="476" width="16" height="72" rx="8"/>
    <rect x="614" y="498" width="16" height="50" rx="8"/>
    <rect x="644" y="466" width="16" height="82" rx="8"/>
    <rect x="674" y="484" width="16" height="64" rx="8"/>
    <rect x="704" y="458" width="16" height="90" rx="8"/>
    <rect x="734" y="492" width="16" height="56" rx="8"/>
  </g>

  <path d="M158 578H774" stroke="#D7C19A" stroke-width="6" stroke-linecap="square" opacity="0.4"/>
  <rect x="148" y="96" width="180" height="18" rx="9" fill="#1F3037"/>
  <rect x="166" y="102" width="88" height="6" rx="3" fill="#D7C19A"/>
</svg>
