<svg width="1200" height="630" viewBox="0 0 1200 630" fill="none" xmlns="http://www.w3.org/2000/svg">
  <!-- Background -->
  <rect width="1200" height="630" fill="#0D1117"/>
  
  <!-- Subtle texture -->
  <defs>
    <radialGradient id="texture" cx="50%" cy="50%" r="70%">
      <stop offset="0%" style="stop-color:#F04444;stop-opacity:0.05"/>
      <stop offset="100%" style="stop-color:#F04444;stop-opacity:0"/>
    </radialGradient>
  </defs>
  <rect width="1200" height="630" fill="url(#texture)"/>
  
  <!-- Leaf motif -->
  <path d="M150 315C150 315 130 275 130 245C130 220 135 200 150 185C165 200 170 220 170 245C170 275 150 315 150 315Z" 
        stroke="#F04444" stroke-width="2" fill="none" opacity="0.6"/>
  <path d="M150 200L150 300" stroke="#F04444" stroke-width="1" opacity="0.4"/>
  
  <!-- Main title -->
  <text x="240" y="280" font-family="Georgia, serif" font-size="72" font-weight="500" 
        fill="#E6EDF3" letter-spacing="-0.025em">Whakapapa</text>
  
  <!-- Subtitle -->
  <text x="240" y="340" font-family="system-ui, sans-serif" font-size="32" 
        fill="#7D8590" letter-spacing="-0.01em">Family Knowledge Base</text>
  
  <!-- Description -->
  <text x="240" y="400" font-family="system-ui, sans-serif" font-size="24" 
        fill="#7D8590" letter-spacing="-0.01em">Preserve your family's stories with AI</text>
  
  <!-- Decorative elements -->
  <circle cx="1050" cy="150" r="2" fill="#F04444" opacity="0.4"/>
  <circle cx="1100" cy="200" r="1.5" fill="#E6EDF3" opacity="0.3"/>
  <circle cx="980" cy="180" r="1" fill="#F04444" opacity="0.5"/>
  
  <circle cx="1020" cy="480" r="1.5" fill="#F04444" opacity="0.3"/>
  <circle cx="1080" cy="450" r="2" fill="#E6EDF3" opacity="0.2"/>
  <circle cx="1140" cy="500" r="1" fill="#F04444" opacity="0.4"/>
</svg>